<?xml version="1.0" encoding="UTF-8"?>
<svg id="Layer_2" data-name="Layer 2" xmlns="http://www.w3.org/2000/svg" viewBox="0 0 271.06 270.27">
  <g id="Layer_1-2" data-name="Layer 1">
    <path d="M39.84,206l-35.75,62.73c-2.06,1.38-3.27,1.64-3.76-1.23-.57-3.34-.41-20.52.56-23.45L140.32.48l14.59.45-.09,186.09,2.99,1.02L265.24.65l5.1-.65v21.5l-99.98,176.03c.04,2.58,7.77,6.18,10.31,7.64,28.89,16.72,59.69,30.7,88.69,47.31,1.49,1.48,2.45,16.03.97,17.52l-111.51-59.07-2.55.51-.93,2.07-.1,54.85c-.86,2.59-13.08,2.48-14.9.15v-62.5H39.84ZM140.34,190V35.5c0-1.76-1.8-1.37-3.01,0-2.96,3.35-7.56,12.44-10.17,16.83-23.01,38.88-46.43,79.35-68,119-2.15,3.95-10.35,15.7-6.41,18.77l3.04.95c25.7-1.63,53.68,2,79.09,0,1.93-.15,3.62-.59,5.45-1.05Z"/>
  </g>
</svg>