<?xml version="1.0" encoding="UTF-8"?>
<svg id="Layer_2" data-name="Layer 2" xmlns="http://www.w3.org/2000/svg" viewBox="0 0 777.3 774.86">
  <g id="Layer_1-2" data-name="Layer 1">
    <path d="M641.03,123.37c13.55-7.19,18.32-19.1,28.96-28.54,4.67-4.14,9.21-6.64,14.05-11.95,15.81-17.38,32.84-34.04,50.03-49.97,8.08-7.49,21.94-27.32,30.92-30.07,10.75-3.29,4.81,4.37,12.05,6.55v757c-5.32-.34-6.53,6.9-11.45,7.05l-755.08-.04c-2.31-1.55-6.35-4.86-6.48-7.61-.03-.59,4.45-9.99,4.96-10.7,3.11-4.4,10.53-7.98,14.1-11.16,9.46-8.44,15.09-18.39,24.46-26.55,13.07-11.38,20.49-21.33,32.5-33,7.32.26,16.17-10.17,17-17l8-8c2.12.21,3.65.19,5.55-.95.88-.52,14.01-13.6,14.51-14.49,1.23-2.18.52-4.25,1.16-5.35s3.31-.12,3.83-4.67l.38-501.62c3.67-1.34,5.52-.59,7.8-4.27l501.11-.61,1.67-4.04ZM762.08,39.37h-4.05v694.52h4.05V39.37ZM753.94,42.47l-4.47.86c-32.25,32.73-65.53,64.64-96.22,98.77l-1.27,6.73.1,482.99c2.01,7.52,9.43,10.69,14.47,15.53,28.2,27.08,54.92,55.78,82.92,83.08l3.03,1.02,2.37-1.73.2-681.89-1.13-5.36ZM646.98,138.37v499.01h3.05V138.37h-3.05ZM610.03,142.37H169.03v2h441v-2ZM519.03,244.37c2.22-2.07,4.51-5.83,6.62-7.88,28.74-27.95,56.85-56.45,85.43-84.57,2.26-3.12.69-5.53-2.77-6.33l-433.82-.26c-12.44,1.03-6.26,5.98-.98,12.05,20.95,24.1,48.85,48.93,71.56,72.49,5.12,5.31,17.12,15.11,19.96,20.5.21.41-.54,1.29.59,2.09,1.35.96,9.8,3.75,11.86,3.96h225.1c6.68-2.23,13.17-5.34,16.45-12.05ZM150.65,164.43c-1.03.31-1.41,1.43-1.71,2.35v441.17c3.59,4.6,12.49-5.67,15.62-8.56,25.85-23.79,62.06-58.21,84.5-84.5,1.69-1.98,3.25-4.11,4.76-6.24l-.33-242.24c-22.58-24.87-48.04-47.37-71.48-71.52-8.63-8.89-15.95-20.4-25.95-28.05-1.42-1.08-3.46-3.02-5.4-2.42ZM624.7,166.51l-96.19,96.85-2.27,3.73c1.64,77.45-2.73,155.4-.65,232.79.11,4.2-.15,9.78,2.44,13l97.54,96.53c10.52-.94,5.57-12.55,5.42-19.48-3.09-138.84,1.54-278.33,1.11-417.11.49-3.89-3.39-7.68-7.39-6.3ZM503.79,501.14l1.28-5.22v-216.09c.13-3.7-1.57-6.84-5.2-7.79l-219.86-.19c-9.22,3.07-5.97,11.27-5.93,17.99.39,64.66,1.24,130.52,0,195.09-.19,9.8-5.5,16.54,8.41,17.49,70.03,4.81,145.49-3.72,216.09,0l5.22-1.28ZM272.03,275.37h-3.05v225h3.05v-225ZM530.38,543.03c-6.44-6.29-12.13-13.73-19.61-18.89l-242.04-.55c-31.74,31.57-63.95,62.74-95.17,94.83-2.27,2.33-5.21,2.09-4.56,6.42.58,3.87,5.32,4.64,8.54,4.64,137.76-.25,276.16-3.08,414.04-1.13,4.61.06,17.06,3.46,19.06-2.93l-.53-3.56c-26.92-25.94-53-52.69-79.72-78.81ZM143.74,650.58c-31.43,30.61-62.08,61.95-93.69,92.31-1.82,1.74-4.6,2.18-5.04,5.03-1.21,7.77,9.29,4.46,13.48,4.41,220.53-2.76,441.52-.17,662.09,0,2.73,0,12.08,2.25,13.39-1.56,1.48-4.3-7.8-9.78-10.46-12.37-24.79-24.13-49.01-49.06-73.5-73.5-4-3.99-10.61-13.53-16.53-14.47l-489.74.15Z" style="fill: #1f1f1f;"/>
    <path d="M128.03,633.37c-4.65,10.91-13.69,19.05-23,26l-8,8c-3.97,7.64-11.38,11.55-17,17-12.01,11.67-19.43,21.62-32.5,33-9.37,8.16-14.99,18.11-24.46,26.55-3.57,3.18-10.99,6.76-14.1,11.16-.5.71-4.99,10.11-4.96,10.7.13,2.75,4.17,6.06,6.48,7.61l755.08.04c4.92-.15,6.13-7.39,11.45-7.05.75,3.76-5,5.25-7.02,8.48H8.05c-2.65-3.71-7.24-6.92-8.05-10.91,4.64-1.84,5.47-7.65,7.6-10.5,6.02-8.04,19.57-15.57,26.88-24.13,8.64-10.12,15.69-15.93,24.52-25.48,9.6-10.38,18.39-18.76,28.5-28.5,6.19-5.97,10.45-11.8,17.03-17.97,4.88-4.58,12.94-10.1,17.2-15.29,1.66-2.03,3.2-6.82,5.29-9.22l-.05-494.1c-.54-1.36.96-2.79,1.07-3.38v498Z" style="fill: #c4c4c4;"/>
    <path d="M128.03,135.37c.32-1.7-.73-3.88.97-5.53.38-.37,8.62-4.41,9.48-4.52l497.04.04c2.63.02,2.75-2.97,4.25-4.02,1.42-1,3.53-1.15,5.19-2.55,9.12-7.71,15.85-18.25,24.58-26.42,10.39-9.73,18.77-19.23,28.96-29,4.61-4.41,13.52-10.24,17.58-15.46,1.29-1.66,1.25-4.34,2.2-5.32,7.02-7.27,20.2-15.16,26.8-23.68,3.22-4.15,1.38-2.8,5.68-6.82,5.59-5.22,11.21-14.46,20.61-11.53,1.32.41,7.26,6.68,5.68,8.81-7.25-2.18-1.3-9.84-12.05-6.55-8.98,2.75-22.84,22.58-30.92,30.07-17.18,15.93-34.22,32.59-50.03,49.97-4.83,5.32-9.38,7.81-14.05,11.95-10.64,9.45-15.41,21.35-28.96,28.54-2.16,1.15-3.29,3.72-6.44,3.06l-493.11-.11c-4.81-.25-7.39,4.3-12.02,4.98l-1.43,502.07V135.37Z" style="fill: silver;"/>
    <path d="M143.74,650.58l489.74-.15c5.92.94,12.54,10.48,16.53,14.47,24.49,24.44,48.71,49.37,73.5,73.5,2.66,2.59,11.94,8.06,10.46,12.37-1.31,3.81-10.66,1.56-13.39,1.56-220.57-.17-441.56-2.76-662.09,0-4.18.05-14.69,3.36-13.48-4.41.44-2.85,3.23-3.28,5.04-5.03,31.6-30.36,62.26-61.71,93.69-92.31ZM48.04,749.37l681.98-1.49-90.92-91.06-7.62-3.38-486.39.48c-22.29,19.52-42.25,41.86-63.52,62.48-9.3,9.02-24.32,19.91-32.04,29.97-.77,1-1.94,1.26-1.49,3Z" style="fill: #878787;"/>
    <rect x="758.03" y="39.37" width="4.05" height="694.52" style="fill: #1e1e1e;"/>
    <path d="M624.7,166.51c4-1.38,7.89,2.41,7.39,6.3.43,138.79-4.2,278.27-1.11,417.11.15,6.93,5.1,18.55-5.42,19.48l-97.54-96.53c-2.59-3.23-2.33-8.81-2.44-13-2.08-77.39,2.29-155.34.65-232.79l2.27-3.73,96.19-96.85ZM628.03,606.37V170.87c-1.12-1.17-1.25-1.93-3.01-1.02-2.18,1.13-8.55,9.58-10.96,12.05-9.55,9.79-19.38,19.36-29,29-18.78,18.81-38.39,37.35-56.38,56.62l-.13,241.83c27.91,29.69,57.23,58.16,86.53,86.47,3.69,3.56,6.73,11.23,12.95,10.55Z" style="fill: #484848;"/>
    <path d="M530.38,543.03c26.72,26.12,52.8,52.87,79.72,78.81l.53,3.56c-2,6.39-14.45,2.99-19.06,2.93-137.88-1.94-276.28.89-414.04,1.13-3.21,0-7.96-.77-8.54-4.64-.65-4.33,2.29-4.09,4.56-6.42,31.22-32.09,63.43-63.26,95.17-94.83l242.04.55c7.48,5.17,13.17,12.6,19.61,18.89ZM173.53,625.37h432l1.02-3.01-91.99-92.01-5.8-4.2c-79.5-1.14-159.7-1.62-239.19.25l-97.04,95.96,1.02,3.01Z" style="fill: #686868;"/>
    <path d="M150.65,164.43c1.94-.59,3.98,1.34,5.4,2.42,10.01,7.64,17.32,19.16,25.95,28.05,23.44,24.15,48.9,46.65,71.48,71.52l.33,242.24c-1.51,2.13-3.07,4.26-4.76,6.24-22.44,26.29-58.65,60.71-84.5,84.5-3.13,2.89-12.03,13.16-15.62,8.56V166.79c.31-.92.69-2.04,1.72-2.35ZM151.56,168.38c-1.16.34-1.67,2.27-1.58,3.45l.21,432.89,2.34,1.7,95.52-94.52c5.55-6.67,2.98-5.04,2.93-11.98-.54-77.27.68-154.56-.16-231.83-23.48-26.47-49.91-50.83-74.82-76.18-6.66-6.78-13.34-16.35-20.93-22.07-1.07-.8-1.89-1.93-3.52-1.45Z" style="fill: #464646;"/>
    <path d="M265.03,250.37c-2.83-5.39-14.84-15.19-19.96-20.5-22.7-23.55-50.61-48.39-71.56-72.49-5.28-6.07-11.46-11.03.98-12.05l433.82.26c3.46.8,5.04,3.21,2.77,6.33-28.58,28.12-56.69,56.62-85.43,84.57-2.11,2.05-4.4,5.81-6.62,7.88-.33.31-2.77,2.42-3.47,2.99-4.04,3.29-7.41,6.17-12.99,6.05h-227.07s-10.46-3.03-10.46-3.03ZM553.38,205.72c16.78-16.69,34.14-32.98,50.1-50.39,2.21-2.41,9.66-5.13,3.04-7.95l-435.49,1.53,1.45,3.52c21,21.32,42.7,41.99,63.57,63.43,6.33,6.51,11.42,13.9,18.45,20.55,2.2,2.08,11.53,11.18,12.98,12.02,2.21,1.29,4.79,1.18,7.18,1.82l231.81.07c2.81-.45,8.55-5.74,11.05-7.95,12.4-10.96,24.05-24.9,35.86-36.65Z" style="fill: #6f6f6f;"/>
    <path d="M503.79,501.14l-5.22,1.28c-70.6-3.72-146.06,4.81-216.09,0-13.91-.96-8.6-7.69-8.41-17.49,1.24-64.57.38-130.43,0-195.09-.04-6.71-3.29-14.91,5.93-17.99l219.86.19c3.63.95,5.33,4.09,5.21,7.79v216.09s-1.29,5.22-1.29,5.22ZM274.97,274.31v226.06h228.06v-226.06h-228.06Z" style="fill: #7d7d7d;"/>
    <rect x="646.98" y="138.37" width="3.05" height="499.01" style="fill: #181818;"/>
    <path d="M641.03,123.37l-1.67,4.04-501.11.61c-2.27,3.68-4.13,2.93-7.8,4.27l-.38,501.62c-.52,4.55-3.18,3.54-3.83,4.67s.08,3.17-1.16,5.35c-.51.89-13.63,13.97-14.51,14.49-1.9,1.13-3.43,1.16-5.55.95,9.31-6.95,18.35-15.09,23-26l1.43-502.07c4.63-.68,7.21-5.23,12.02-4.98l493.11.11c3.14.65,4.28-1.92,6.44-3.06Z" style="fill: #5b5b5b;"/>
    <rect x="169.03" y="142.37" width="441" height="2" style="fill: #0f0f0f;"/>
    <path d="M519.03,244.37c-3.28,6.71-9.78,9.82-16.45,12.05h-225.1c-2.06-.2-10.51-3-11.86-3.95-1.13-.8-.38-1.69-.59-2.09l10.46,3.04h227.07c5.59.12,8.96-2.76,12.99-6.05.7-.57,3.14-2.68,3.47-2.99Z" style="fill: #2e2e2e;"/>
    <rect x="268.98" y="275.37" width="3.05" height="225" style="fill: #141414;"/>
    <path d="M80.03,684.37c5.62-5.45,13.03-9.36,17-17-.83,6.83-9.68,17.26-17,17Z" style="fill: #5b5b5b;"/>
    <path d="M48.04,749.37c-.45-1.74.72-2,1.49-3,7.72-10.06,22.73-20.94,32.04-29.97,21.26-20.63,41.22-42.96,63.52-62.48l486.39-.48,7.62,3.38,90.92,91.06-681.98,1.49Z" style="fill: #959595;"/>
    <path d="M628.03,606.37c-6.22.69-9.27-6.99-12.95-10.55-29.3-28.31-58.62-56.78-86.53-86.47l.13-241.83c17.99-19.27,37.6-37.81,56.38-56.62,9.62-9.63,19.45-19.21,29-29,2.4-2.47,8.77-10.92,10.96-12.05,1.76-.91,1.89-.16,3.01,1.02v435.5Z" style="fill: #959595;"/>
    <path d="M151.56,168.38c1.63-.48,2.45.65,3.52,1.45,7.59,5.72,14.27,15.29,20.93,22.07,24.91,25.35,51.33,49.71,74.82,76.18.84,77.26-.38,154.56.16,231.83.05,6.94,2.63,5.31-2.93,11.98l-95.52,94.52-2.34-1.7-.21-432.89c-.09-1.17.42-3.1,1.58-3.45Z" style="fill: #959595;"/>
    <path d="M274.97,274.31h228.06v226.06h-228.06v-226.06ZM276.28,275.21l-.13,223.98,225.83.13.13-223.98-225.83-.13Z" style="fill: #bfbfbf;"/>
    <polygon points="502.11 277.38 279.03 275.22 502.11 275.34 502.11 277.38" style="fill: #e9e9e9;"/>
    <path d="M276.16,497.37l.13-219c1.28,3.91,2.62,7.6,2.8,11.45,3,66.22-2.4,134.66.02,201.11l-2.95,6.43Z" style="fill: #e9e9e9;"/>
  </g>
</svg>