<?xml version="1.0" encoding="UTF-8"?>
<svg id="Layer_2" data-name="Layer 2" xmlns="http://www.w3.org/2000/svg" viewBox="0 0 441.75 441.02">
  <g id="Layer_1-2" data-name="Layer 1">
    <path d="M440.52,220.51C440.52,99,342.02.5,220.51.5S.5,99,.5,220.51s98.5,220.01,220.01,220.01,220.01-98.5,220.01-220.01" style="fill: #ff006e; stroke: #fff; stroke-miterlimit: 10;"/>
    <path d="M265.35,247.11h103.1v9.61h-103.1l-.02-.04c-2.22,0-4.02,1.8-4.02,4.02l.04.02v25.29l-.04-.02c0,2.22,1.8,4.02,4.02,4.02l.02.04h85.17-.02c9.91,0,17.95,8.02,17.95,17.9v16.73-.02c0,9.89-8.04,17.9-17.95,17.9l.02.04h-98.79v-9.61h98.79-.02c4.6,0,8.33-3.73,8.33-8.33v.02-16.73c0-4.6-3.73-8.33-8.33-8.33l.02.04h-85.17l-.02-.04c-7.53,0-13.63-6.1-13.63-13.63l.04.02v-25.29l-.04-.02c0-7.53,6.1-13.63,13.63-13.63" style="fill: #fff;"/>
    <polyline points="131.05 118.69 85.18 194.03 72.69 194.03 131.05 98.52 189.4 194.03 176.91 194.03 131.05 118.69" style="fill: #fff;"/>
    <polyline points="131.05 282.35 72.69 247.08 72.69 342.59 83.29 342.59 83.29 266 131.05 294.79 178.8 266 178.8 342.59 189.4 342.59 189.4 247.08 131.05 282.35" style="fill: #fff;"/>
    <polyline points="310.07 133.79 251.71 98.52 251.71 194.03 262.31 194.03 262.31 117.44 310.07 146.23 357.82 117.44 357.82 194.03 368.42 194.03 368.42 98.52 310.07 133.79" style="fill: #fff;"/>
    <line x1="53.04" y1="77.83" x2="388.08" y2="363.24" style="fill: none; opacity: .67; stroke: #fff; stroke-linecap: round; stroke-linejoin: round;"/>
    <line x1="53.04" y1="363.24" x2="388.08" y2="77.83" style="fill: none; opacity: .67; stroke: #fff; stroke-linecap: round; stroke-linejoin: round;"/>
    <polyline points="220.56 .5 220.56 220.53 440.55 220.53 220.56 .5" style="fill: none; opacity: .67; stroke: #fff; stroke-miterlimit: 10;"/>
  </g>
</svg>