<?xml version="1.0" encoding="UTF-8"?>
<svg id="Layer_2" data-name="Layer 2" xmlns="http://www.w3.org/2000/svg" viewBox="0 0 2673 649">
  <g id="Layer_1-2" data-name="Layer 1">
    <g>
      <path d="M2673,0v649H0V0h2673ZM1206.55,60.91l-238.25,143.62-238.57-143.62v389.4h42.98V137.79l195.52,116.83,195.33-116.83v312.52h42.98V60.91ZM1884.3,60.91l-238.42,143.46-238.4-143.46v388.4h42.98V137.79l195.43,116.76,195.43-116.76v312.52h42.98V60.91ZM2561.04,60.91h-430.34c-23.03,0-44.38,29.07-46.35,50.55-3.27,35.62,2.17,75.6-.11,111.68,2.27,27.81,23.76,48.92,51.43,51.47l352.95-.08c16.38.28,30.32,12.92,33.18,28.76-1.33,24.8,2.67,53.24.25,77.61-1.52,15.25-16.88,30.46-32.48,30.46h-405.35v38.94l403.4.05c37.97-2.06,66.48-24.65,73.3-62.57-1.49-28.46,2.4-59.64.16-87.78-2.77-34.67-35.32-62.88-69.47-64.41l-356.44-.43c-7.03-2.47-11.13-7.5-11.97-15-3.69-32.81,2.77-72.32,0-105.84-.73-4.39,7.82-14.48,11.5-14.48h426.34v-38.94ZM529.8,450.31L291.39,61.92,52.98,450.31h50.48l187.93-306.51,187.93,306.51h50.48ZM318.89,531.18c1.52,1.1,10.11-8.29,9.51-9.97-15.24-26.96-48.24-20.87-60.98,5-11.81,23.96-9.69,64.89,12.47,82.37,14.45,11.4,33.45,9.18,45.02-4.98,1.77-2.16,5.3-6.18,5.01-8.97-.2-1.95-7.78-9.42-9.01-8.52-6.36,18.98-26.51,22.59-39.51,7-12.95-15.52-13.09-49.91-.9-65.82,11.41-14.9,31.93-14.97,38.41,3.9ZM794.72,531.18c1.35,1,9.72-7.76,8.5-10.93-3.58-9.22-17.36-16.73-27-16.82-47.97-.41-53.62,91.99-14.48,109.1,18.29,7.99,36.42.5,43.75-17.78l-8.27-8.67c-11.15,24.37-36.63,21.19-46.25-2.73-7.7-19.16-5.65-57.26,17.05-65.37,11.9-4.25,22.76,1.42,26.71,13.18ZM1603.41,528.18c7.68-6.72,12.67-8.55,3.98-17.46-10.6-10.87-28.85-8.62-37.41,3.55-8.06,11.45-7.58,33.21,2.54,43.26,8.71,8.64,27.86,9.77,29.79,23.16,3.45,23.98-22.75,31.03-29.91,8.41-1.07-.78-8.95,6.84-9.53,8.01-1.95,3.95,8.95,13.77,12.51,15.48,29.01,13.98,46.38-19.98,35.03-43.98-8.25-17.46-33.83-12.16-35.01-32.98-1.14-20.19,21.47-27.22,28.02-7.45ZM2026.59,607.71c12.04,12.04,32.6,10.72,40.81-4.96,5.01-9.56,5.59-25.25.64-34.95-7.53-14.77-28.06-12.89-33.02-24.93-8.65-21.03,15.26-38.44,26.72-15.68,8.34-5.59,11.35-8.49,3.52-16.52-12.1-12.42-33.1-7.46-39.8,8.25-6.32,14.83-3.72,32.95,10.04,42.44,8.7,6,22.9,6.79,24.63,19.33,1.21,8.77-1.33,19.37-10.88,21.91-9.85,2.62-15.51-6.12-19.51-13.48l-9.35,8.59c-.35,1.86,4.66,8.46,6.19,9.99ZM2411.87,503.5c-53.79.83-52.88,112.76.72,112.62,52.78-.14,53.23-113.45-.72-112.62ZM125.95,613.05l-31.18-105.14c-1.56-3.03-7.6-1.45-10.66-1.55l-33.12,106.69,10.85-.13,8.02-26.24,37.06-.54,7.14,26.81,11.89.1ZM196.43,506.22c-8.56-1.21-19.64.9-28.49,0v106.84h11v-48.92c3.17.38,7.85-1.3,9.91,1.58l19.57,46.35,12.5.99-21.02-49.37c25.61-7.92,23.92-53.58-3.47-57.46ZM384.86,506.22h-11v106.84h11v-48.92h36.99v48.92h12v-106.84h-12v44.93h-36.99v-44.93ZM484.82,506.22v106.84h11v-106.84h-11ZM600.78,506.22h-61.98v12.98h24.99v93.86h12v-93.86h24.99v-12.98ZM692.74,506.22h-49.98v106.84h50.98v-12.98h-38.99v-35.94h34.99v-12.98h-34.99v-31.95h37.99v-12.98ZM902.66,506.22h-61.98v12.98h24.99v93.86h12v-93.86h24.99v-12.98ZM954.64,506.22h-11v73.39c0,3.6,2.79,13.99,4.24,17.73,9.27,24.02,39.08,25.2,49.23,1.72,1.08-2.5,4.51-13.38,4.51-15.46v-77.38h-11v73.39c0,1.32-1.92,8.7-2.53,10.45-4.89,14.08-20.79,18.54-28.49,4.56-2.1-3.81-4.96-14.87-4.96-19v-69.39ZM1080.1,506.22c-8.64-1.16-19.58.86-28.49,0v106.84h12v-48.92l8.84.16,20.27,48.64,12.88.11-21.98-49.42c26.6-7.07,24.43-53.65-3.51-57.4ZM1214.55,613.05l-31.16-105.17c-1.82-2.98-7.5-1.44-10.69-1.52l-33.13,106.69,11.51-.98,7.58-25.87,36.28-.17,7.65,26.98,11.96.04ZM1267.53,506.22h-11v106.84h44.98v-12.98h-33.99v-93.86ZM1429.48,590.08l-21.19-82.18c-1.67-3.25-8.53-1.12-11.81-1.68l29.45,106.89,7.91-.19,1.43-1.56,28.18-105.14-11.52.97-22.46,82.89ZM1515.43,506.22h-11v106.84h11v-106.84ZM1670.38,506.22h-11v75.38c0,2.15,2.65,11.84,3.54,14.44,9.47,27.44,42.84,26.2,51.48-1.41.72-2.28,2.95-11.24,2.95-13.02v-75.38h-11v72.39c0,1.55-2.05,9.24-2.72,11.26-5.82,17.54-24.9,17.52-30.54,0-.79-2.45-2.72-10.16-2.72-12.26v-71.39ZM1801.23,506.32h-10.8s-33.08,106.73-33.08,106.73l11.9-.09,8.05-26.4,36.14.14,7.36,25.39,12.52.96-32.09-106.72ZM1885.29,506.22h-11v106.84h45.98v-12.98h-34.99v-93.86ZM1973.26,506.22h-11v106.84h11v-106.84ZM2152.06,506.35c-3.19.11-8.89-1.46-10.7,1.53l-33.15,105.16,11.9-.09,8.04-26.42c1.37-.97,30.11-.93,33.6-.49,1.1.14,2.24-.09,2.97,1.03l7.61,25.84,11.85.13-32.12-106.7ZM2271.15,506.22h-60.98v12.98h24.99v93.86h11v-93.86h24.99v-12.98ZM2314.13,506.22v106.84h11v-106.84h-11ZM2499.07,506.22v106.84h11v-82.87l41.47,81.89,12.51.98v-106.84h-11v82.87l-41.14-82.71-12.84-.16Z" style="fill: #fff;"/>
      <path d="M2561.04,60.91v38.94h-426.34c-3.67,0-12.22,10.09-11.5,14.48,2.77,33.52-3.7,73.03,0,105.84.84,7.5,4.94,12.53,11.97,15l356.44.43c34.15,1.52,66.7,29.73,69.47,64.41,2.24,28.14-1.65,59.32-.16,87.78-6.83,37.92-35.33,60.52-73.3,62.57l-403.4-.05v-38.94h405.35c15.6,0,30.96-15.21,32.48-30.46,2.42-24.38-1.57-52.82-.25-77.61-2.87-15.84-16.81-28.48-33.18-28.76l-352.95.08c-27.67-2.55-49.16-23.66-51.43-51.47,2.28-36.08-3.16-76.07.11-111.68,1.97-21.48,23.33-50.55,46.35-50.55h430.34Z" style="fill: #ff006e; stroke: #fff; stroke-miterlimit: 10;"/>
      <polygon points="1206.55 60.91 1206.55 450.31 1163.56 450.31 1163.56 137.79 968.23 254.62 772.71 137.79 772.71 450.31 729.73 450.31 729.73 60.91 968.3 204.52 1206.55 60.91" style="fill: #ff006e; stroke: #fff; stroke-miterlimit: 10;"/>
      <polygon points="1884.3 60.91 1884.3 450.31 1841.31 450.31 1841.31 137.79 1645.88 254.55 1450.46 137.79 1450.46 449.31 1407.47 449.31 1407.47 60.91 1645.87 204.36 1884.3 60.91" style="fill: #ff006e; stroke: #fff; stroke-miterlimit: 10;"/>
      <polygon points="529.8 450.31 479.32 450.31 291.39 143.8 103.46 450.31 52.98 450.31 291.39 61.92 529.8 450.31" style="fill: #ff006e; stroke: #fff; stroke-miterlimit: 10;"/>
      <polygon points="2499.07 506.22 2511.9 506.38 2553.04 589.09 2553.04 506.22 2564.04 506.22 2564.04 613.06 2551.53 612.07 2510.06 530.18 2510.06 613.06 2499.07 613.06 2499.07 506.22"/>
      <path d="M2411.87,503.5c53.95-.83,53.5,112.49.72,112.62-53.6.14-54.51-111.8-.72-112.62ZM2410.91,516.42c-38.28,2.05-36.76,87.44,1.69,86.72,38.98-.73,38.25-88.86-1.69-86.72Z"/>
      <path d="M1080.1,506.22c27.94,3.76,30.11,50.33,3.51,57.4l21.98,49.42-12.88-.11-20.27-48.64-8.84-.16v48.92h-12v-106.84c8.91.86,19.84-1.16,28.49,0ZM1063.6,551.15h18.49c1.99,0,7.03-6.11,7.73-8.26,1.7-5.2,1.35-14.81-2.21-19.22-1.18-1.45-6.06-4.47-7.52-4.47h-16.49v31.95Z"/>
      <path d="M196.43,506.22c27.39,3.88,29.07,49.54,3.47,57.46l21.02,49.37-12.5-.99-19.57-46.35c-2.06-2.88-6.74-1.2-9.91-1.58v48.92h-11v-106.84c8.85.9,19.93-1.21,28.49,0ZM196.43,519.2c-4.81-.97-12.32.71-17.49,0v31.95h18.49c.6,0,5.08-3.3,5.84-4.26,6.27-7.94,3.76-25.56-6.84-27.69Z"/>
      <polygon points="384.86 506.22 384.86 551.15 421.84 551.15 421.84 506.22 433.84 506.22 433.84 613.06 421.84 613.06 421.84 564.13 384.86 564.13 384.86 613.06 373.86 613.06 373.86 506.22 384.86 506.22"/>
      <polygon points="692.74 506.22 692.74 519.2 654.76 519.2 654.76 551.15 689.74 551.15 689.74 564.13 654.76 564.13 654.76 600.08 693.74 600.08 693.74 613.06 642.76 613.06 642.76 506.22 692.74 506.22"/>
      <path d="M1801.23,506.32l32.09,106.72-12.52-.96-7.36-25.39-36.14-.14-8.05,26.4-11.9.09,33.08-106.73h10.8ZM1809.32,573.12l-13.01-45.93-14.98,45.93h27.99Z"/>
      <path d="M1214.55,613.05l-11.96-.04-7.65-26.98-36.28.17-7.58,25.87-11.51.98,33.13-106.69c3.19.08,8.87-1.46,10.69,1.52l31.16,105.17ZM1191.55,573.12l-14.98-45.93-13.01,45.93h27.99Z"/>
      <path d="M125.95,613.05l-11.89-.1-7.14-26.81-37.06.54-8.02,26.24-10.85.13,33.12-106.69c3.07.1,9.1-1.48,10.66,1.55l31.18,105.14ZM102.96,573.12l-14.98-45.93-14.01,45.93h28.99Z"/>
      <path d="M2152.06,506.35l32.12,106.7-11.85-.13-7.61-25.84c-.73-1.12-1.88-.89-2.97-1.03-3.49-.44-32.23-.48-33.6.49l-8.04,26.42-11.9.09,33.15-105.16c1.81-2.99,7.51-1.42,10.7-1.53ZM2160.19,573.12l-13.49-45.94-14.49,45.94h27.99Z"/>
      <path d="M954.64,506.22v69.39c0,4.14,2.87,15.19,4.96,19,7.7,13.99,23.6,9.52,28.49-4.56.61-1.75,2.53-9.13,2.53-10.45v-73.39h11v77.38c0,2.08-3.43,12.96-4.51,15.46-10.15,23.48-39.95,22.3-49.23-1.72-1.44-3.74-4.24-14.13-4.24-17.73v-73.39h11Z"/>
      <path d="M1670.38,506.22v71.39c0,2.09,1.93,9.81,2.72,12.26,5.64,17.52,24.73,17.54,30.54,0,.67-2.02,2.72-9.71,2.72-11.26v-72.39h11v75.38c0,1.79-2.24,10.74-2.95,13.02-8.65,27.61-42.02,28.85-51.48,1.41-.9-2.6-3.54-12.29-3.54-14.44v-75.38h11Z"/>
      <path d="M318.89,531.18c-6.48-18.88-27-18.81-38.41-3.9-12.18,15.92-12.05,50.3.9,65.82,13.01,15.59,33.15,11.98,39.51-7,1.23-.9,8.81,6.57,9.01,8.52.29,2.8-3.24,6.81-5.01,8.97-11.57,14.16-30.57,16.38-45.02,4.98-22.16-17.48-24.27-58.41-12.47-82.37,12.75-25.87,45.74-31.96,60.98-5,.61,1.68-7.99,11.07-9.51,9.97Z"/>
      <path d="M794.72,531.18c-3.95-11.76-14.82-17.43-26.71-13.18-22.7,8.11-24.75,46.21-17.05,65.37,9.62,23.92,35.1,27.1,46.25,2.73l8.27,8.67c-7.34,18.28-25.47,25.77-43.75,17.78-39.15-17.11-33.49-109.51,14.48-109.1,9.64.08,23.42,7.6,27,16.82,1.23,3.16-7.14,11.93-8.5,10.93Z"/>
      <path d="M1603.41,528.18c-6.55-19.77-29.16-12.74-28.02,7.45,1.18,20.81,26.76,15.51,35.01,32.98,11.34,24-6.02,57.96-35.03,43.98-3.56-1.72-14.46-11.54-12.51-15.48.58-1.18,8.46-8.8,9.53-8.01,7.16,22.62,33.37,15.57,29.91-8.41-1.93-13.38-21.08-14.51-29.79-23.16-10.13-10.05-10.6-31.81-2.54-43.26,8.56-12.16,26.81-14.42,37.41-3.55,8.69,8.91,3.7,10.74-3.98,17.46Z"/>
      <path d="M2026.59,607.71c-1.53-1.52-6.54-8.13-6.19-9.99l9.35-8.59c4,7.36,9.66,16.1,19.51,13.48,9.55-2.54,12.09-13.15,10.88-21.91-1.73-12.54-15.93-13.33-24.63-19.33-13.77-9.49-16.37-27.61-10.04-42.44,6.7-15.71,27.7-20.68,39.8-8.25,7.82,8.03,4.81,10.93-3.52,16.52-11.45-22.76-35.37-5.35-26.72,15.68,4.95,12.04,25.48,10.17,33.02,24.93,4.95,9.7,4.37,25.38-.64,34.95-8.21,15.68-28.77,17-40.81,4.96Z"/>
      <path d="M1429.48,590.08l22.46-82.89,11.52-.97-28.18,105.14-1.43,1.56-7.91.19-29.45-106.89c3.27.56,10.14-1.56,11.81,1.68l21.19,82.18Z"/>
      <polygon points="902.66 506.22 902.66 519.2 877.67 519.2 877.67 613.06 865.68 613.06 865.68 519.2 840.69 519.2 840.69 506.22 902.66 506.22"/>
      <polygon points="600.78 506.22 600.78 519.2 575.78 519.2 575.78 613.06 563.79 613.06 563.79 519.2 538.8 519.2 538.8 506.22 600.78 506.22"/>
      <polygon points="2271.15 506.22 2271.15 519.2 2246.16 519.2 2246.16 613.06 2235.16 613.06 2235.16 519.2 2210.17 519.2 2210.17 506.22 2271.15 506.22"/>
      <polygon points="1885.29 506.22 1885.29 600.08 1920.28 600.08 1920.28 613.06 1874.3 613.06 1874.3 506.22 1885.29 506.22"/>
      <polygon points="1267.53 506.22 1267.53 600.08 1301.51 600.08 1301.51 613.06 1256.53 613.06 1256.53 506.22 1267.53 506.22"/>
      <rect x="1962.27" y="506.22" width="11" height="106.84"/>
      <rect x="2314.13" y="506.22" width="11" height="106.84"/>
      <rect x="484.82" y="506.22" width="11" height="106.84"/>
      <rect x="1504.44" y="506.22" width="11" height="106.84"/>
      <path d="M2410.91,516.42c39.94-2.14,40.67,85.99,1.69,86.72-38.44.72-39.97-84.67-1.69-86.72Z" style="fill: #fff;"/>
      <path d="M1063.6,551.15v-31.95h16.49c1.46,0,6.34,3.02,7.52,4.47,3.56,4.41,3.91,14.02,2.21,19.22-.7,2.15-5.74,8.26-7.73,8.26h-18.49Z" style="fill: #fff;"/>
      <path d="M196.43,519.2c10.59,2.13,13.1,19.74,6.84,27.69-.76.96-5.23,4.26-5.84,4.26h-18.49v-31.95c5.17.71,12.68-.97,17.49,0Z" style="fill: #fff;"/>
      <polygon points="1809.32 573.12 1781.33 573.12 1796.32 527.19 1809.32 573.12" style="fill: #fff;"/>
      <polygon points="1191.55 573.12 1163.56 573.12 1176.57 527.19 1191.55 573.12" style="fill: #fff;"/>
      <polygon points="102.96 573.12 73.97 573.12 87.98 527.19 102.96 573.12" style="fill: #fff;"/>
      <polygon points="2160.19 573.12 2132.2 573.12 2146.7 527.18 2160.19 573.12" style="fill: #fff;"/>
    </g>
  </g>
</svg>